M48
; DRILL file {KiCad 7.0.9} date Wednesday, November 22, 2023 at 11:31:28 AM
; FORMAT={-:-/ absolute / inch / decimal}
; #@! TF.CreationDate,2023-11-22T11:31:28+01:00
; #@! TF.GenerationSoftware,Kicad,Pcbnew,7.0.9
; #@! TF.FileFunction,Plated,1,2,PTH
FMAT,2
INCH
; #@! TA.AperFunction,Plated,PTH,ViaDrill
T1C0.0118
; #@! TA.AperFunction,Plated,PTH,ComponentDrill
T2C0.0236
; #@! TA.AperFunction,Plated,PTH,ComponentDrill
T3C0.0394
%
G90
G05
T1
X5.2805Y-4.2589
X5.2913Y-3.9803
X5.2953Y-3.7402
X5.315Y-3.8189
X5.3406Y-4.186
X5.3533Y-4.9252
X5.3533Y-5.0925
X5.3543Y-3.7402
X5.4134Y-3.7402
X5.4173Y-4.2933
X5.4409Y-4.0354
X5.4606Y-4.1339
X5.4724Y-3.7402
X5.4724Y-4.2126
X5.4744Y-3.9616
X5.5354Y-4.3071
X5.5709Y-3.7992
X5.5906Y-3.937
X5.6014Y-4.3711
X5.6102Y-4.0453
X5.6791Y-4.1693
X5.687Y-4.2785
X5.689Y-3.7992
X5.7254Y-4.2756
X5.7283Y-4.374
X5.748Y-4.0787
X5.7972Y-4.2756
X5.8071Y-3.7992
X5.8258Y-5.0877
X5.8494Y-5.0354
X5.878Y-4.3622
X5.9026Y-4.4577
X5.9055Y-3.937
X5.9055Y-4.0787
X5.9163Y-4.3061
X5.9193Y-4.5236
X5.9252Y-3.7992
X5.9331Y-4.1693
X5.9931Y-4.6152
X6.0Y-4.3622
X6.0039Y-4.439
X6.0157Y-4.0837
X6.0217Y-3.876
X6.0217Y-5.1191
X6.0236Y-3.7402
X6.0295Y-3.9734
X6.0561Y-4.6122
X6.0571Y-4.9252
X6.0817Y-4.2972
X6.0827Y-3.7402
X6.0886Y-4.0787
X6.0945Y-4.7756
X6.0945Y-4.8199
X6.1161Y-4.9252
X6.1427Y-4.7638
X6.1496Y-4.5118
X6.1526Y-4.6585
X6.1555Y-3.811
X6.1614Y-5.0709
X6.1811Y-4.7362
X6.1811Y-4.9085
X6.2047Y-5.2441
T3
X6.1902Y-3.7618
X6.1902Y-3.8618
X6.1902Y-3.9618
X6.1902Y-4.0618
X6.1902Y-4.1618
X6.1902Y-4.2618
T2
G00X5.7827Y-5.1839
M15
G01X5.7827Y-5.2272
M16
G05
G00X5.7827Y-5.3583
M15
G01X5.7827Y-5.3819
M16
G05
G00X6.1228Y-5.1839
M15
G01X6.1228Y-5.2272
M16
G05
G00X6.1228Y-5.3583
M15
G01X6.1228Y-5.3819
M16
G05
T0
M30
